<svg width="48" height="49" viewBox="0 0 48 49" fill="none" xmlns="http://www.w3.org/2000/svg">
<g clip-path="url(#clip0_10_50)">
<path d="M34.8002 16.0699H21.1802C20.7824 16.0699 20.4008 16.228 20.1195 16.5092C19.8383 16.7906 19.6802 17.1721 19.6802 17.5699C19.6802 17.9677 19.8383 18.3493 20.1195 18.6305C20.4008 18.9119 20.7824 19.0699 21.1802 19.0699H34.8002C35.198 19.0699 35.5796 18.9119 35.8608 18.6305C36.1422 18.3493 36.3002 17.9677 36.3002 17.5699C36.3002 17.1721 36.1422 16.7906 35.8608 16.5092C35.5796 16.228 35.198 16.0699 34.8002 16.0699Z" fill="#1D1C1D"/>
<path d="M34.8002 21.722H21.1802C20.7824 21.722 20.4008 21.8801 20.1195 22.1614C19.8383 22.4426 19.6802 22.8242 19.6802 23.222C19.6802 23.6198 19.8383 24.0014 20.1195 24.2827C20.4008 24.5639 20.7824 24.722 21.1802 24.722H34.8002C35.198 24.722 35.5796 24.5639 35.8608 24.2827C36.1422 24.0014 36.3002 23.6198 36.3002 23.222C36.3002 22.8242 36.1422 22.4426 35.8608 22.1614C35.5796 21.8801 35.198 21.722 34.8002 21.722Z" fill="#1D1C1D"/>
<path d="M34.7999 27.6499H28.4399C28.042 27.6499 27.6605 27.808 27.3793 28.0893C27.0979 28.3705 26.9399 28.7521 26.9399 29.1499C26.9399 29.5477 27.0979 29.9293 27.3793 30.2106C27.6605 30.4918 28.042 30.6499 28.4399 30.6499H34.7999C35.1977 30.6499 35.5792 30.4918 35.8606 30.2106C36.1418 29.9293 36.2999 29.5477 36.2999 29.1499C36.2999 28.7521 36.1418 28.3705 35.8606 28.0893C35.5792 27.808 35.1977 27.6499 34.7999 27.6499Z" fill="#1D1C1D"/>
<path d="M32.3999 0.950195H18.1559C16.9773 0.953372 15.848 1.42382 15.0156 2.25839C14.1833 3.09296 13.7159 4.22353 13.7159 5.4022V28.5742L8.6519 30.1582C8.06027 30.3413 7.5341 30.6914 7.13662 31.1663C6.73913 31.6412 6.48724 32.2208 6.4112 32.8355C6.33517 33.4501 6.43822 34.0737 6.70798 34.6312C6.97774 35.1886 7.40273 35.6564 7.9319 35.9782L8.1479 36.1102L4.7999 39.0142C4.46813 39.304 4.19971 39.6592 4.01138 40.0574C3.82306 40.4557 3.71888 40.8884 3.70537 41.3288C3.69185 41.7691 3.7693 42.2076 3.93284 42.6166C4.09639 43.0257 4.34254 43.3966 4.6559 43.7062L7.4519 46.5142C7.7641 46.8237 8.13619 47.066 8.54537 47.2265C8.95456 47.3871 9.39223 47.4623 9.83153 47.4478C10.2708 47.4331 10.7025 47.329 11.1002 47.1416C11.4978 46.9543 11.853 46.6876 12.1439 46.3582L15.0479 43.0462L15.1799 43.2622C15.5049 43.7869 15.9734 44.2073 16.53 44.4739C17.0867 44.7404 17.708 44.8418 18.3206 44.7661C18.933 44.6903 19.5108 44.4406 19.9857 44.0464C20.4606 43.6522 20.8127 43.1302 20.9999 42.5422L22.3919 38.0782H37.9919C38.5776 38.083 39.1584 37.9721 39.7011 37.7519C40.2438 37.5319 40.7379 37.2068 41.1548 36.7955C41.5716 36.3841 41.9033 35.8946 42.1307 35.3549C42.3581 34.8151 42.4767 34.2358 42.4799 33.6502V11.2462L32.3999 0.950195ZM33.2639 6.1222L37.4159 10.3582H33.2519L33.2639 6.1222ZM18.1679 41.6542C18.1547 41.6974 18.1274 41.7351 18.0905 41.761C18.0536 41.7871 18.009 41.8001 17.9639 41.7982C17.9279 41.8007 17.892 41.7931 17.8601 41.7761C17.8283 41.759 17.8019 41.7336 17.7839 41.7022L15.6719 38.2462C15.6521 38.2166 15.6254 38.1923 15.594 38.1755C15.5625 38.1589 15.5276 38.1502 15.4919 38.1502C15.4622 38.1493 15.4325 38.1553 15.4055 38.1677C15.3783 38.1802 15.3545 38.1989 15.3359 38.2222L9.9239 44.3782C9.90527 44.4014 9.88148 44.42 9.85441 44.4326C9.82733 44.4451 9.79771 44.4511 9.7679 44.4502C9.71356 44.4694 9.65425 44.4694 9.5999 44.4502L6.8039 41.5822C6.76424 41.5399 6.74218 41.4841 6.74218 41.4262C6.74218 41.3683 6.76424 41.3125 6.8039 41.2702L12.9599 35.8702C12.9872 35.8501 13.0094 35.8238 13.0247 35.7937C13.04 35.7634 13.0479 35.7301 13.0479 35.6962C13.0479 35.6623 13.04 35.629 13.0247 35.5987C13.0094 35.5684 12.9872 35.5423 12.9599 35.5222L9.5039 33.4102C9.46436 33.396 9.43016 33.37 9.40598 33.3355C9.38182 33.3011 9.36884 33.2602 9.36884 33.2182C9.36884 33.1762 9.38182 33.1353 9.40598 33.1007C9.43016 33.0664 9.46436 33.0405 9.5039 33.0262L21.6599 29.2222H21.7199C21.7541 29.2199 21.7881 29.2264 21.819 29.2406C21.8501 29.255 21.8769 29.2771 21.8973 29.3046C21.9176 29.332 21.9306 29.3641 21.9353 29.398C21.9399 29.4317 21.936 29.4662 21.9239 29.4982L18.1679 41.6542ZM38.0279 35.0782H23.3639L24.8399 30.3862C24.9906 29.9044 25.0257 29.3941 24.9426 28.8962C24.8594 28.3984 24.6602 27.9271 24.3611 27.5205C24.062 27.1139 23.6714 26.7835 23.2209 26.5558C22.7705 26.3282 22.2726 26.2097 21.7679 26.2102C21.4425 26.21 21.119 26.2586 20.8079 26.3542L16.7159 27.6502V5.4022C16.7159 5.01917 16.8672 4.65166 17.1369 4.37969C17.4066 4.10773 17.7729 3.95336 18.1559 3.9502H30.2519V10.6702C30.255 11.3842 30.5409 12.0679 31.047 12.5716C31.553 13.0754 32.2379 13.3582 32.9519 13.3582H39.4799V33.6502C39.4736 34.0311 39.3179 34.3943 39.0462 34.6615C38.7746 34.9285 38.4089 35.0782 38.0279 35.0782Z" fill="#1D1C1D"/>
</g>
<defs>
<clipPath id="clip0_10_50">
<rect width="48" height="48" fill="white" transform="translate(0 0.0500488)"/>
</clipPath>
</defs>
</svg>
